<svg width="64" height="65" viewBox="0 0 64 65" fill="none" xmlns="http://www.w3.org/2000/svg">
<path fill-rule="evenodd" clip-rule="evenodd" d="M18.7093 4.88928C18.8332 4.76511 18.9803 4.66659 19.1423 4.59938C19.3043 4.53216 19.478 4.49756 19.6533 4.49756C19.8287 4.49756 20.0024 4.53216 20.1644 4.59938C20.3263 4.66659 20.4735 4.76511 20.5973 4.88928L23.544 7.83861C25.8278 6.51815 28.4206 5.82623 31.0587 5.83328H32.9413C35.5814 5.8261 38.1762 6.51897 40.4613 7.84128L43.4133 4.88928C43.6637 4.63926 44.0031 4.49895 44.3569 4.4992C44.7108 4.49945 45.05 4.64024 45.3 4.89061C45.55 5.14097 45.6903 5.4804 45.6901 5.83422C45.6898 6.18804 45.549 6.52727 45.2987 6.77728L42.6747 9.40128C44.3448 10.8144 45.6866 12.5749 46.6063 14.56C47.5261 16.545 48.0017 18.7068 48 20.8946C47.9993 21.1438 47.8998 21.3826 47.7233 21.5585C47.5469 21.7345 47.3079 21.8333 47.0587 21.8333H16.9413C16.6917 21.8333 16.4522 21.7341 16.2757 21.5576C16.0992 21.381 16 21.1416 16 20.8919C16 16.2839 18.0693 12.1586 21.3333 9.39861L18.7093 6.77728C18.5852 6.65342 18.4867 6.50629 18.4194 6.3443C18.3522 6.18231 18.3176 6.00865 18.3176 5.83328C18.3176 5.6579 18.3522 5.48424 18.4194 5.32225C18.4867 5.16027 18.5852 5.01313 18.7093 4.88928ZM28 14.4999C28 15.0304 27.7893 15.5391 27.4142 15.9142C27.0391 16.2892 26.5304 16.4999 26 16.4999C25.4696 16.4999 24.9609 16.2892 24.5858 15.9142C24.2107 15.5391 24 15.0304 24 14.4999C24 13.9695 24.2107 13.4608 24.5858 13.0857C24.9609 12.7107 25.4696 12.4999 26 12.4999C26.5304 12.4999 27.0391 12.7107 27.4142 13.0857C27.7893 13.4608 28 13.9695 28 14.4999ZM37.9307 16.4999C38.4611 16.4999 38.9698 16.2892 39.3449 15.9142C39.7199 15.5391 39.9307 15.0304 39.9307 14.4999C39.9307 13.9695 39.7199 13.4608 39.3449 13.0857C38.9698 12.7107 38.4611 12.4999 37.9307 12.4999C37.4002 12.4999 36.8915 12.7107 36.5165 13.0857C36.1414 13.4608 35.9307 13.9695 35.9307 14.4999C35.9307 15.0304 36.1414 15.5391 36.5165 15.9142C36.8915 16.2892 37.4002 16.4999 37.9307 16.4999Z" fill="white"/>
<path d="M10.6667 24.3586C9.95942 24.3586 9.28115 24.6396 8.78105 25.1397C8.28095 25.6398 8 26.3181 8 27.0253V43.0253C8 43.7326 8.28095 44.4108 8.78105 44.9109C9.28115 45.411 9.95942 45.692 10.6667 45.692C11.3739 45.692 12.0522 45.411 12.5523 44.9109C13.0524 44.4108 13.3333 43.7326 13.3333 43.0253V27.0253C13.3333 26.3181 13.0524 25.6398 12.5523 25.1397C12.0522 24.6396 11.3739 24.3586 10.6667 24.3586ZM18.6667 24.3586C17.9594 24.3586 17.2811 24.6396 16.781 25.1397C16.281 25.6398 16 26.3181 16 27.0253V51.0253C16 51.7326 16.281 52.4108 16.781 52.9109C17.2811 53.411 17.9594 53.692 18.6667 53.692H45.3333C46.0406 53.692 46.7189 53.411 47.219 52.9109C47.7191 52.4108 48 51.7326 48 51.0253V27.0253C48 26.3181 47.7191 25.6398 47.219 25.1397C46.7189 24.6396 46.0406 24.3586 45.3333 24.3586H18.6667ZM51.2267 27.0253C51.2267 26.3181 51.5076 25.6398 52.0077 25.1397C52.5078 24.6396 53.1861 24.3586 53.8933 24.3586C54.6006 24.3586 55.2789 24.6396 55.779 25.1397C56.279 25.6398 56.56 26.3181 56.56 27.0253V43.0253C56.56 43.7326 56.279 44.4108 55.779 44.9109C55.2789 45.411 54.6006 45.692 53.8933 45.692C53.1861 45.692 52.5078 45.411 52.0077 44.9109C51.5076 44.4108 51.2267 43.7326 51.2267 43.0253V27.0253ZM20.7813 56.5C20.6785 56.5 20.5767 56.5203 20.4817 56.5597C20.3867 56.5991 20.3005 56.6569 20.2279 56.7298C20.1553 56.8026 20.0978 56.889 20.0587 56.9842C20.0196 57.0793 19.9996 57.1811 20 57.284V57.8333C20 59.071 20.4917 60.258 21.3668 61.1331C22.242 62.0083 23.429 62.5 24.6667 62.5C25.9043 62.5 27.0913 62.0083 27.9665 61.1331C28.8417 60.258 29.3333 59.071 29.3333 57.8333V57.284C29.3337 57.1811 29.3137 57.0793 29.2746 56.9842C29.2355 56.889 29.178 56.8026 29.1054 56.7298C29.0328 56.6569 28.9466 56.5991 28.8516 56.5597C28.7567 56.5203 28.6548 56.5 28.552 56.5H20.7813ZM34.6667 57.284C34.6667 56.8493 35.016 56.5 35.448 56.5H43.216C43.6507 56.5 44 56.8493 44 57.284V57.8333C44 59.071 43.5083 60.258 42.6332 61.1331C41.758 62.0083 40.571 62.5 39.3333 62.5C38.0957 62.5 36.9087 62.0083 36.0335 61.1331C35.1583 60.258 34.6667 59.071 34.6667 57.8333V57.284Z" fill="white"/>
</svg>
