<svg width="64" height="65" viewBox="0 0 64 65" fill="none" xmlns="http://www.w3.org/2000/svg">
<path d="M45.4665 54.58C42.8531 57.1133 39.9998 56.7133 37.2531 55.5133C34.3465 54.2867 31.6798 54.2333 28.6131 55.5133C24.7731 57.1667 22.7465 56.6867 20.4531 54.58C7.43979 41.1667 9.35979 20.74 24.1331 19.9933C27.7331 20.18 30.2398 21.9667 32.3465 22.1267C35.4931 21.4867 38.5065 19.6467 41.8665 19.8867C45.8931 20.2067 48.9331 21.8067 50.9331 24.6867C42.6131 29.6733 44.5865 40.6333 52.2131 43.7C50.6931 47.7 48.7198 51.6733 45.4398 54.6067L45.4665 54.58ZM32.0798 19.8333C31.6798 13.8867 36.5065 8.98 42.0531 8.5C42.8265 15.38 35.8131 20.5 32.0798 19.8333Z" fill="white"/>
</svg>
