<svg width="1002" height="223" viewBox="0 0 1002 223" fill="none" xmlns="http://www.w3.org/2000/svg">
<g filter="url(#filter0_d_85_25)">
<path d="M313.336 196V179.636H316.521V196H313.336ZM314.944 177.112C314.39 177.112 313.915 176.927 313.517 176.558C313.126 176.181 312.931 175.734 312.931 175.215C312.931 174.69 313.126 174.242 313.517 173.873C313.915 173.496 314.39 173.308 314.944 173.308C315.498 173.308 315.971 173.496 316.361 173.873C316.759 174.242 316.958 174.69 316.958 175.215C316.958 175.734 316.759 176.181 316.361 176.558C315.971 176.927 315.498 177.112 314.944 177.112ZM341.992 186.284V196H338.806V179.636H341.864V182.3H342.066C342.443 181.433 343.032 180.737 343.835 180.212C344.644 179.686 345.664 179.423 346.892 179.423C348.007 179.423 348.984 179.658 349.822 180.126C350.66 180.588 351.31 181.277 351.772 182.193C352.233 183.109 352.464 184.242 352.464 185.592V196H349.279V185.975C349.279 184.789 348.97 183.862 348.352 183.195C347.734 182.52 346.885 182.183 345.806 182.183C345.067 182.183 344.41 182.342 343.835 182.662C343.267 182.982 342.816 183.45 342.482 184.068C342.155 184.679 341.992 185.418 341.992 186.284ZM382.524 179.636V182.193H373.277V179.636H382.524ZM375.812 196V177.74C375.812 176.717 376.036 175.869 376.483 175.194C376.931 174.512 377.524 174.004 378.262 173.67C379.001 173.33 379.804 173.159 380.67 173.159C381.309 173.159 381.856 173.212 382.311 173.319C382.765 173.418 383.103 173.511 383.323 173.596L382.577 176.174C382.428 176.131 382.236 176.082 382.002 176.025C381.767 175.961 381.483 175.929 381.149 175.929C380.375 175.929 379.821 176.121 379.487 176.504C379.161 176.888 378.997 177.442 378.997 178.166V196H375.812ZM410.059 196.33C408.524 196.33 407.186 195.979 406.042 195.276C404.899 194.572 404.011 193.589 403.379 192.325C402.747 191.06 402.431 189.583 402.431 187.893C402.431 186.195 402.747 184.711 403.379 183.44C404.011 182.168 404.899 181.181 406.042 180.478C407.186 179.775 408.524 179.423 410.059 179.423C411.593 179.423 412.931 179.775 414.075 180.478C415.218 181.181 416.106 182.168 416.738 183.44C417.37 184.711 417.686 186.195 417.686 187.893C417.686 189.583 417.37 191.06 416.738 192.325C416.106 193.589 415.218 194.572 414.075 195.276C412.931 195.979 411.593 196.33 410.059 196.33ZM410.069 193.656C411.063 193.656 411.887 193.393 412.541 192.868C413.194 192.342 413.677 191.643 413.99 190.769C414.309 189.896 414.469 188.933 414.469 187.882C414.469 186.838 414.309 185.879 413.99 185.006C413.677 184.125 413.194 183.418 412.541 182.886C411.887 182.353 411.063 182.087 410.069 182.087C409.068 182.087 408.237 182.353 407.576 182.886C406.923 183.418 406.436 184.125 406.117 185.006C405.804 185.879 405.648 186.838 405.648 187.882C405.648 188.933 405.804 189.896 406.117 190.769C406.436 191.643 406.923 192.342 407.576 192.868C408.237 193.393 409.068 193.656 410.069 193.656ZM439.242 196V179.636H442.321V182.236H442.491C442.79 181.355 443.315 180.663 444.068 180.158C444.828 179.647 445.687 179.391 446.646 179.391C446.845 179.391 447.079 179.398 447.349 179.413C447.626 179.427 447.843 179.445 447.999 179.466V182.513C447.871 182.477 447.644 182.438 447.317 182.396C446.991 182.346 446.664 182.321 446.337 182.321C445.584 182.321 444.913 182.481 444.324 182.8C443.741 183.113 443.28 183.55 442.939 184.111C442.598 184.665 442.427 185.297 442.427 186.007V196H439.242ZM468.756 196V179.636H471.813V182.3H472.016C472.356 181.398 472.914 180.695 473.688 180.19C474.462 179.679 475.389 179.423 476.469 179.423C477.562 179.423 478.479 179.679 479.217 180.19C479.963 180.702 480.513 181.405 480.869 182.3H481.039C481.43 181.426 482.051 180.73 482.903 180.212C483.756 179.686 484.771 179.423 485.95 179.423C487.435 179.423 488.646 179.888 489.583 180.819C490.528 181.749 491 183.152 491 185.027V196H487.815V185.325C487.815 184.217 487.513 183.415 486.909 182.918C486.305 182.42 485.584 182.172 484.746 182.172C483.709 182.172 482.903 182.491 482.328 183.131C481.753 183.763 481.465 184.576 481.465 185.57V196H478.29V185.123C478.29 184.235 478.013 183.521 477.459 182.982C476.905 182.442 476.185 182.172 475.297 182.172C474.693 182.172 474.136 182.332 473.624 182.651C473.12 182.964 472.712 183.401 472.399 183.962C472.094 184.523 471.941 185.173 471.941 185.911V196H468.756ZM518.031 196.362C516.994 196.362 516.057 196.17 515.219 195.787C514.381 195.396 513.717 194.832 513.227 194.093C512.744 193.354 512.502 192.449 512.502 191.376C512.502 190.453 512.68 189.693 513.035 189.097C513.39 188.5 513.869 188.028 514.473 187.68C515.077 187.332 515.752 187.069 516.497 186.891C517.243 186.714 518.003 186.579 518.777 186.487C519.757 186.373 520.553 186.281 521.163 186.21C521.774 186.131 522.218 186.007 522.495 185.837C522.772 185.666 522.911 185.389 522.911 185.006V184.931C522.911 184.001 522.648 183.28 522.122 182.768C521.604 182.257 520.83 182.001 519.8 182.001C518.727 182.001 517.882 182.239 517.264 182.715C516.653 183.184 516.231 183.706 515.997 184.281L513.003 183.599C513.358 182.605 513.877 181.803 514.558 181.192C515.247 180.574 516.039 180.126 516.934 179.849C517.829 179.565 518.77 179.423 519.757 179.423C520.411 179.423 521.103 179.501 521.835 179.658C522.573 179.807 523.262 180.084 523.901 180.489C524.548 180.893 525.077 181.472 525.489 182.225C525.901 182.971 526.107 183.94 526.107 185.134V196H522.996V193.763H522.868C522.662 194.175 522.353 194.58 521.941 194.977C521.529 195.375 521 195.705 520.354 195.968C519.707 196.231 518.933 196.362 518.031 196.362ZM518.724 193.805C519.604 193.805 520.357 193.631 520.982 193.283C521.614 192.935 522.094 192.481 522.421 191.92C522.754 191.352 522.921 190.744 522.921 190.098V187.989C522.808 188.102 522.587 188.209 522.261 188.308C521.941 188.401 521.575 188.482 521.163 188.553C520.752 188.617 520.35 188.678 519.96 188.734C519.569 188.784 519.242 188.827 518.979 188.862C518.362 188.94 517.797 189.072 517.286 189.256C516.781 189.441 516.377 189.707 516.071 190.055C515.773 190.396 515.624 190.851 515.624 191.419C515.624 192.207 515.915 192.804 516.497 193.209C517.08 193.607 517.822 193.805 518.724 193.805ZM555.988 179.636V182.193H547.05V179.636H555.988ZM549.447 175.716H552.632V191.195C552.632 191.813 552.724 192.278 552.909 192.591C553.094 192.896 553.332 193.106 553.623 193.219C553.921 193.326 554.244 193.379 554.592 193.379C554.848 193.379 555.072 193.362 555.263 193.326C555.455 193.29 555.604 193.262 555.711 193.241L556.286 195.872C556.101 195.943 555.839 196.014 555.498 196.085C555.157 196.163 554.731 196.206 554.219 196.213C553.381 196.227 552.6 196.078 551.876 195.766C551.151 195.453 550.565 194.97 550.118 194.317C549.67 193.663 549.447 192.843 549.447 191.856V175.716ZM577.511 196V179.636H580.697V196H577.511ZM579.12 177.112C578.566 177.112 578.09 176.927 577.693 176.558C577.302 176.181 577.107 175.734 577.107 175.215C577.107 174.69 577.302 174.242 577.693 173.873C578.09 173.496 578.566 173.308 579.12 173.308C579.674 173.308 580.146 173.496 580.537 173.873C580.935 174.242 581.134 174.69 581.134 175.215C581.134 175.734 580.935 176.181 580.537 176.558C580.146 176.927 579.674 177.112 579.12 177.112ZM614.03 202.136V193.454H613.838C613.646 193.802 613.369 194.2 613.007 194.647C612.652 195.094 612.162 195.485 611.537 195.819C610.912 196.153 610.102 196.32 609.108 196.32C607.787 196.32 606.608 195.982 605.571 195.308C604.541 194.626 603.731 193.656 603.142 192.399C602.56 191.135 602.268 189.619 602.268 187.85C602.268 186.082 602.563 184.569 603.153 183.312C603.749 182.055 604.566 181.092 605.603 180.425C606.64 179.757 607.815 179.423 609.129 179.423C610.145 179.423 610.962 179.594 611.579 179.935C612.204 180.268 612.687 180.659 613.028 181.107C613.376 181.554 613.646 181.948 613.838 182.289H614.104V179.636H617.215V202.136H614.03ZM609.811 193.603C610.727 193.603 611.501 193.362 612.133 192.879C612.773 192.388 613.256 191.71 613.582 190.844C613.916 189.977 614.083 188.969 614.083 187.818C614.083 186.682 613.92 185.687 613.593 184.835C613.266 183.983 612.787 183.319 612.155 182.843C611.523 182.367 610.741 182.129 609.811 182.129C608.852 182.129 608.053 182.378 607.414 182.875C606.775 183.372 606.292 184.05 605.965 184.91C605.646 185.769 605.486 186.739 605.486 187.818C605.486 188.912 605.649 189.896 605.976 190.769C606.302 191.643 606.785 192.335 607.425 192.847C608.071 193.351 608.866 193.603 609.811 193.603ZM649.864 189.214V179.636H653.06V196H649.927V193.166H649.757C649.381 194.04 648.777 194.768 647.946 195.35C647.122 195.925 646.096 196.213 644.867 196.213C643.816 196.213 642.886 195.982 642.076 195.521C641.273 195.052 640.641 194.359 640.18 193.443C639.725 192.527 639.498 191.394 639.498 190.045V179.636H642.683V189.661C642.683 190.776 642.992 191.664 643.61 192.325C644.228 192.985 645.03 193.315 646.018 193.315C646.614 193.315 647.207 193.166 647.797 192.868C648.393 192.57 648.887 192.119 649.278 191.515C649.675 190.911 649.871 190.144 649.864 189.214ZM682.392 196.33C680.78 196.33 679.391 195.986 678.227 195.297C677.069 194.601 676.174 193.624 675.542 192.367C674.917 191.103 674.604 189.622 674.604 187.925C674.604 186.249 674.917 184.771 675.542 183.493C676.174 182.214 677.055 181.217 678.184 180.499C679.32 179.782 680.649 179.423 682.168 179.423C683.092 179.423 683.987 179.576 684.853 179.881C685.72 180.187 686.497 180.666 687.186 181.32C687.875 181.973 688.418 182.822 688.816 183.866C689.214 184.903 689.413 186.163 689.413 187.648V188.777H676.405V186.391H686.291C686.291 185.553 686.121 184.81 685.78 184.164C685.439 183.511 684.96 182.996 684.342 182.619C683.731 182.243 683.014 182.055 682.19 182.055C681.295 182.055 680.514 182.275 679.846 182.715C679.185 183.148 678.674 183.717 678.312 184.42C677.957 185.116 677.779 185.872 677.779 186.689V188.553C677.779 189.647 677.971 190.577 678.354 191.344C678.745 192.112 679.288 192.697 679.984 193.102C680.68 193.5 681.494 193.699 682.424 193.699C683.028 193.699 683.578 193.614 684.075 193.443C684.573 193.266 685.002 193.003 685.364 192.655C685.727 192.307 686.004 191.877 686.195 191.366L689.21 191.909C688.969 192.797 688.536 193.575 687.911 194.242C687.293 194.903 686.515 195.418 685.578 195.787C684.647 196.149 683.585 196.33 682.392 196.33Z" fill="white"/>
<path d="M88.6037 155L55.3082 38.6364H82.1832L101.445 119.489H102.411L123.661 38.6364H146.672L167.865 119.659H168.888L188.149 38.6364H215.024L181.729 155H157.751L135.592 78.9205H134.683L112.581 155H88.6037ZM212.192 155V38.6364H290.601V58.9205H236.794V86.6477H286.567V106.932H236.794V134.716H290.828V155H212.192ZM294.161 155V38.6364H340.751C349.312 38.6364 356.452 39.9053 362.172 42.4432C367.892 44.9811 372.191 48.5038 375.07 53.0114C377.948 57.4811 379.388 62.6326 379.388 68.4659C379.388 73.0114 378.479 77.0076 376.661 80.4545C374.842 83.8636 372.342 86.6667 369.161 88.8636C366.017 91.0227 362.418 92.5568 358.365 93.4659V94.6023C362.797 94.7917 366.945 96.0417 370.808 98.3523C374.71 100.663 377.873 103.902 380.297 108.068C382.721 112.197 383.933 117.121 383.933 122.841C383.933 129.015 382.399 134.527 379.331 139.375C376.301 144.186 371.812 147.992 365.865 150.795C359.918 153.598 352.589 155 343.876 155H294.161ZM318.763 134.886H338.82C345.676 134.886 350.676 133.58 353.82 130.966C356.964 128.314 358.536 124.792 358.536 120.398C358.536 117.178 357.759 114.337 356.206 111.875C354.653 109.413 352.437 107.481 349.558 106.08C346.717 104.678 343.327 103.977 339.388 103.977H318.763V134.886ZM318.763 87.3295H337.001C340.373 87.3295 343.365 86.7424 345.979 85.5682C348.63 84.3561 350.714 82.6515 352.229 80.4545C353.782 78.2576 354.558 75.625 354.558 72.5568C354.558 68.3523 353.062 64.9621 350.07 62.3864C347.115 59.8106 342.911 58.5227 337.456 58.5227H318.763V87.3295ZM419.169 156.705C411.139 156.705 404.207 155.265 398.374 152.386C392.54 149.508 388.052 145.606 384.908 140.682C381.802 135.72 380.249 130.189 380.249 124.091C380.249 119.545 381.158 115.511 382.976 111.989C384.794 108.466 387.332 105.227 390.589 102.273C393.847 99.2803 397.635 96.3068 401.953 93.3523L424.51 78.5227C427.427 76.6667 429.567 74.7159 430.93 72.6705C432.294 70.5871 432.976 68.3333 432.976 65.9091C432.976 63.5985 432.048 61.4583 430.192 59.4886C428.336 57.5189 425.703 56.553 422.294 56.5909C420.021 56.5909 418.052 57.1023 416.385 58.125C414.718 59.1098 413.411 60.4167 412.464 62.0455C411.555 63.6364 411.101 65.4167 411.101 67.3864C411.101 69.8106 411.783 72.2727 413.146 74.7727C414.51 77.2727 416.328 79.9242 418.601 82.7273C420.874 85.4924 423.355 88.4848 426.044 91.7045L481.214 155H455.987L409.964 103.75C406.934 100.303 403.904 96.7045 400.874 92.9545C397.881 89.1667 395.381 85.1515 393.374 80.9091C391.366 76.6288 390.362 71.9886 390.362 66.9886C390.362 61.3447 391.669 56.2689 394.283 51.7614C396.934 47.2538 400.646 43.6932 405.419 41.0795C410.192 38.428 415.76 37.1023 422.124 37.1023C428.336 37.1023 433.696 38.3712 438.203 40.9091C442.749 43.4091 446.233 46.7424 448.658 50.9091C451.12 55.0379 452.351 59.5833 452.351 64.5455C452.351 70.0379 450.987 75.0189 448.26 79.4886C445.571 83.9205 441.783 87.8977 436.896 91.4205L413.146 108.523C409.927 110.871 407.54 113.277 405.987 115.739C404.472 118.163 403.714 120.492 403.714 122.727C403.714 125.492 404.396 127.973 405.76 130.17C407.124 132.367 409.055 134.11 411.555 135.398C414.055 136.648 416.991 137.273 420.362 137.273C424.453 137.273 428.487 136.345 432.464 134.489C436.48 132.595 440.116 129.924 443.374 126.477C446.669 122.992 449.302 118.864 451.271 114.091C453.241 109.318 454.226 104.034 454.226 98.2386H474.283C474.283 105.36 473.506 111.78 471.953 117.5C470.4 123.182 468.241 128.144 465.476 132.386C462.711 136.591 459.548 140.038 455.987 142.727C454.851 143.447 453.752 144.129 452.692 144.773C451.631 145.417 450.533 146.098 449.396 146.818C445.078 150.303 440.249 152.822 434.908 154.375C429.605 155.928 424.358 156.705 419.169 156.705ZM538.879 72.1023C538.425 67.5189 536.474 63.9583 533.027 61.4205C529.58 58.8826 524.902 57.6136 518.993 57.6136C514.978 57.6136 511.588 58.1818 508.822 59.3182C506.057 60.4167 503.936 61.9508 502.459 63.9205C501.019 65.8902 500.3 68.125 500.3 70.625C500.224 72.7083 500.66 74.5265 501.607 76.0795C502.591 77.6326 503.936 78.9773 505.641 80.1136C507.345 81.2121 509.315 82.178 511.55 83.0114C513.785 83.8068 516.171 84.4886 518.709 85.0568L529.163 87.5568C534.239 88.6932 538.898 90.2083 543.141 92.1023C547.383 93.9962 551.057 96.3258 554.163 99.0909C557.269 101.856 559.675 105.114 561.379 108.864C563.122 112.614 564.012 116.913 564.05 121.761C564.012 128.883 562.194 135.057 558.595 140.284C555.035 145.473 549.883 149.508 543.141 152.386C536.436 155.227 528.349 156.648 518.879 156.648C509.485 156.648 501.304 155.208 494.334 152.33C487.402 149.451 481.985 145.189 478.084 139.545C474.22 133.864 472.194 126.837 472.004 118.466H495.811C496.076 122.367 497.194 125.625 499.163 128.239C501.171 130.814 503.841 132.765 507.175 134.091C510.546 135.379 514.353 136.023 518.595 136.023C522.762 136.023 526.379 135.417 529.447 134.205C532.554 132.992 534.959 131.307 536.663 129.148C538.368 126.989 539.22 124.508 539.22 121.705C539.22 119.091 538.444 116.894 536.891 115.114C535.375 113.333 533.141 111.818 530.186 110.568C527.269 109.318 523.69 108.182 519.447 107.159L506.777 103.977C496.966 101.591 489.22 97.8598 483.538 92.7841C477.857 87.7083 475.035 80.8712 475.072 72.2727C475.035 65.2273 476.91 59.072 480.697 53.8068C484.523 48.5417 489.769 44.4318 496.436 41.4773C503.103 38.5227 510.679 37.0455 519.163 37.0455C527.8 37.0455 535.338 38.5227 541.777 41.4773C548.254 44.4318 553.292 48.5417 556.891 53.8068C560.489 59.072 562.345 65.1705 562.459 72.1023H538.879ZM560.166 58.9205V38.6364H655.734V58.9205H620.109V155H595.791V58.9205H560.166ZM648.655 38.6364H676.212L702.746 88.75H703.882L730.416 38.6364H757.973L715.53 113.864V155H691.098V113.864L648.655 38.6364ZM755.411 155V38.6364H780.013V134.716H829.899V155H755.411ZM830.192 155V38.6364H908.601V58.9205H854.794V86.6477H904.567V106.932H854.794V134.716H908.828V155H830.192ZM925.854 156.477C922.104 156.477 918.884 155.152 916.195 152.5C913.543 149.811 912.217 146.591 912.217 142.841C912.217 139.129 913.543 135.947 916.195 133.295C918.884 130.644 922.104 129.318 925.854 129.318C929.49 129.318 932.672 130.644 935.399 133.295C938.126 135.947 939.49 139.129 939.49 142.841C939.49 145.341 938.846 147.633 937.558 149.716C936.308 151.761 934.661 153.409 932.615 154.659C930.57 155.871 928.316 156.477 925.854 156.477Z" fill="white"/>
</g>
<defs>
<filter id="filter0_d_85_25" x="0" y="0" width="1002" height="223" filterUnits="userSpaceOnUse" color-interpolation-filters="sRGB">
<feFlood flood-opacity="0" result="BackgroundImageFix"/>
<feColorMatrix in="SourceAlpha" type="matrix" values="0 0 0 0 0 0 0 0 0 0 0 0 0 0 0 0 0 0 127 0" result="hardAlpha"/>
<feOffset dy="4"/>
<feGaussianBlur stdDeviation="2"/>
<feComposite in2="hardAlpha" operator="out"/>
<feColorMatrix type="matrix" values="0 0 0 0 0 0 0 0 0 0 0 0 0 0 0 0 0 0 0.25 0"/>
<feBlend mode="normal" in2="BackgroundImageFix" result="effect1_dropShadow_85_25"/>
<feBlend mode="normal" in="SourceGraphic" in2="effect1_dropShadow_85_25" result="shape"/>
</filter>
</defs>
</svg>
